<svg width="241" height="30" viewBox="0 0 241 30" fill="none" xmlns="http://www.w3.org/2000/svg">
<path d="M78.2539 18.6821C80.625 18.6821 81.9111 19.4936 81.9111 22.1089V27.7495H79.3682L79.0664 26.4565C78.6965 26.9341 78.221 27.3193 77.6777 27.5835C77.1345 27.8476 76.5376 27.9839 75.9336 27.98C74.2882 27.98 72.9805 27.1098 72.9805 25.4644V24.5806C72.9806 23.1868 74.0441 22.3315 75.79 22.3315H78.7139V22.0952C78.7139 21.3767 78.4119 21.0884 77.4922 21.0884C76.5725 21.0884 75.1925 21.0893 73.7197 21.2114L73.4404 19.1196C75.0317 18.8533 76.6407 18.7075 78.2539 18.6821ZM113.603 18.9536H115.865V20.9731H113.588V24.688C113.588 25.2553 113.804 25.4487 114.422 25.4487H115.449L115.801 27.5688C114.908 27.8467 113.977 27.9845 113.042 27.978C111.382 27.978 110.369 27.0584 110.369 25.4849V20.9731H108.86V19.0396L110.369 18.9683V16.5825H113.603V18.9536ZM120.086 18.7007C121.53 18.7151 122.972 18.8374 124.397 19.0669L124.182 21.022H120.747C119.475 21.022 119.26 21.0218 119.26 21.3882C119.26 21.7546 119.511 21.7472 120.345 21.9771L122.5 22.5376C124.038 22.9687 124.764 23.6231 124.764 25.1392C124.764 27.3521 123.563 27.9556 120.61 27.9556C119.167 27.9571 117.725 27.844 116.3 27.6177L116.493 25.6704H119.591C121.308 25.6704 121.624 25.6128 121.624 25.2104C121.624 24.8085 121.322 24.8589 120.438 24.5933L118.383 24.0249C116.565 23.5076 116.155 22.5881 116.155 21.2446C116.155 19.5489 117.147 18.7007 120.086 18.7007ZM104.266 18.686C107.427 18.686 108.634 19.7424 108.648 21.7974C108.648 23.4068 107.858 24.1685 105.573 24.1685H102.937C103.08 25.16 103.54 25.4399 104.668 25.4399C105.821 25.4318 106.972 25.3626 108.117 25.2319L108.404 27.2153C107.113 27.7583 105.716 28.0032 104.316 27.9331C100.796 27.9331 99.502 26.4962 99.502 23.3706C99.502 19.9004 100.831 18.6861 104.266 18.686ZM89.6162 21.6616H88.7617C87.9431 21.6893 87.13 21.813 86.3398 22.0288V27.7769H83.1211V18.9526H85.6357L85.916 20.2466C86.8537 19.317 88.1038 18.7685 89.4229 18.7085H89.8965L89.6162 21.6616ZM93.6318 20.2837C93.634 20.8391 93.5931 21.3938 93.5098 21.9429H94.1641L96.0537 18.9546H99.5957L97.5557 21.9077C97.3219 22.289 97.0077 22.6146 96.6357 22.8628V22.9351C97.0159 23.2184 97.3301 23.5815 97.5557 23.9985L99.9121 27.7495H96.3555L94.1064 23.8188H93.4736C93.5431 24.2516 93.5838 24.6884 93.5957 25.1265V27.7495H90.4131V15.3618H93.6318V20.2837ZM70.5391 15.5396C70.6996 15.52 70.8626 15.5369 71.0156 15.5894C71.1687 15.6419 71.308 15.7291 71.4229 15.8433C71.5376 15.9574 71.6252 16.0958 71.6787 16.2485C71.7322 16.4013 71.751 16.5643 71.7324 16.7251L72.1777 27.7476H69.1455L68.75 18.0688H68.4697L66.9824 24.895C66.9445 25.2015 66.7877 25.4812 66.5459 25.6733C66.3041 25.8653 65.9965 25.9547 65.6895 25.9224H63.8281C63.5197 25.9532 63.2115 25.8629 62.9678 25.6714C62.7241 25.4799 62.5636 25.2019 62.5205 24.895L61.0186 18.0688H60.7383L60.415 27.7476H57.3613L57.7852 16.7251C57.7692 16.5642 57.7899 16.4016 57.8447 16.2495C57.8996 16.0975 57.9876 15.9598 58.1025 15.8462C58.2175 15.7326 58.3561 15.6453 58.5088 15.5923C58.6615 15.5393 58.8247 15.5216 58.9854 15.5396H61.96C62.2683 15.5129 62.5754 15.6061 62.8164 15.8003C63.0573 15.9944 63.2133 16.2747 63.2529 16.5815L64.4033 21.9985C64.5039 22.5804 64.5756 23.1842 64.6475 23.7661H64.8408C64.9342 23.1842 64.9997 22.5805 65.1074 21.9771L66.2207 16.5815C66.2603 16.2746 66.4172 15.9944 66.6582 15.8003C66.8992 15.6062 67.2063 15.5129 67.5146 15.5396H70.5391ZM76.875 24.0132C76.3433 24.0132 76.1562 24.3008 76.1562 24.7319V25.0337C76.1563 25.4934 76.4219 25.7524 77.0254 25.7524L77.2275 25.6782C77.7629 25.6045 78.2733 25.4006 78.7139 25.0835V24.0132H76.875ZM104.352 20.856C103.274 20.856 102.915 21.0862 102.915 22.5015H104.668C105.43 22.5015 105.552 22.2712 105.552 21.7251C105.552 21.0069 105.235 20.856 104.352 20.856ZM88.3857 10.8882C88.3857 11.4199 88.688 11.6499 89.3203 11.6499H89.96L90.333 13.8052C89.5748 14.0864 88.7705 14.2228 87.9619 14.2075C86.2448 14.2075 85.1818 13.3098 85.1816 11.7651V1.56201H88.3857V10.8882ZM93.876 10.731C93.876 11.277 94.0847 11.4927 94.6523 11.4927C95.2432 11.4695 95.8217 11.3175 96.3477 11.0474V5.15576H99.6025V13.9507H97.0518L96.7939 12.6929C95.829 13.6298 94.5458 14.1685 93.2012 14.2017C91.5198 14.2017 90.6504 13.3463 90.6504 11.7368V5.15576H93.876V10.731ZM80.8008 4.93408C81.9831 4.91197 83.1586 5.11691 84.2637 5.5376L83.9482 7.51318H81.3467C80.0032 7.51323 79.5791 7.93787 79.5791 9.56885C79.5792 11.1996 80.0033 11.6235 81.3467 11.6235C82.2683 11.6246 83.1899 11.5768 84.1064 11.48L84.4082 13.5132C83.2572 13.9996 82.0136 14.2305 80.7646 14.189C77.4022 14.1889 76.1954 12.9672 76.1953 9.56885C76.1953 6.1702 77.4165 4.93409 80.8008 4.93408ZM128.568 4.88232C131.737 4.88233 132.937 5.94602 132.959 7.99365C132.959 9.60316 132.161 10.3647 129.876 10.3647H127.246C127.383 11.3562 127.843 11.6371 128.978 11.6372C130.13 11.6291 131.282 11.5589 132.427 11.4282L132.714 13.4185C131.422 13.9615 130.025 14.2074 128.626 14.1372C125.105 14.1372 123.812 12.7004 123.812 9.56787C123.812 6.10455 125.134 4.88232 128.568 4.88232ZM104.411 4.87451C105.855 4.888 107.297 5.01332 108.722 5.24854L108.542 7.22412H105.107C103.836 7.22412 103.62 7.22453 103.62 7.59814C103.62 7.97173 103.872 7.95026 104.698 8.18018L106.854 8.74756C108.377 9.15712 109.096 9.81126 109.096 11.313C109.096 13.5259 107.888 14.1225 104.936 14.1226C103.492 14.124 102.05 14.0109 100.624 13.7847L100.818 11.8442H103.915C105.632 11.8442 105.955 11.7938 105.955 11.3843C105.955 10.9752 105.653 11.0328 104.77 10.7671L102.715 10.1987C100.89 9.68856 100.487 8.80516 100.487 7.41846C100.487 5.72272 101.48 4.87451 104.411 4.87451ZM59.9336 1.69287C61.9522 1.65588 63.9713 1.72096 65.9834 1.88721L65.8252 4.27197H61.2412C61.1384 4.25888 61.0335 4.27044 60.9355 4.3042C60.8377 4.33797 60.7486 4.39373 60.6758 4.46729C60.6029 4.54089 60.5484 4.63076 60.5156 4.729C60.4829 4.8271 60.4724 4.93124 60.4863 5.03369V6.521H65.1719V8.80615H60.4863V10.6606C60.4724 10.7631 60.4829 10.8672 60.5156 10.9653C60.5484 11.0636 60.6029 11.1534 60.6758 11.2271C60.7486 11.3006 60.8377 11.3564 60.9355 11.3901C61.0335 11.4239 61.1384 11.4345 61.2412 11.4214H65.8252L65.9834 13.8071C63.9717 13.9795 61.9523 14.0467 59.9336 14.0083C59.5742 14.04 59.2118 13.995 58.8711 13.8765C58.5305 13.7579 58.2191 13.5686 57.957 13.3208C57.6949 13.0729 57.488 12.7725 57.3506 12.439C57.2133 12.1055 57.1486 11.7467 57.1602 11.3862V4.30811C57.1508 3.94861 57.2173 3.59131 57.3555 3.25928C57.4937 2.92711 57.7002 2.6272 57.9619 2.38037C58.2236 2.13367 58.5345 1.94516 58.874 1.82666C59.2137 1.70815 59.5751 1.66243 59.9336 1.69287ZM113.213 13.9517H110.009V5.15674H113.213V13.9517ZM71.2422 8.46826L72.959 5.15576H76.1777L73.75 9.45947L76.3721 13.9507H73.1533L71.2422 10.4155L69.3086 13.9507H66.0898L68.7129 9.45947L66.2842 5.15576H69.5098L71.2422 8.46826ZM118.379 10.3071C118.501 10.8387 118.587 11.3849 118.681 11.9165H118.911L119.227 10.3071L120.534 5.15576H123.934L121.21 13.189C121.143 13.4095 121.007 13.6026 120.822 13.7397C120.637 13.8769 120.413 13.9512 120.183 13.9507H117.424C117.193 13.9548 116.966 13.8822 116.78 13.7446C116.595 13.6069 116.459 13.4114 116.396 13.189L113.673 5.15576H117.064L118.379 10.3071ZM128.654 7.06006C127.577 7.0601 127.218 7.29018 127.218 8.70557H128.978C129.739 8.70557 129.861 8.47544 129.861 7.92236C129.861 7.20383 129.545 7.06006 128.654 7.06006ZM110.893 1.19775H112.293C112.911 1.19775 113.213 1.51431 113.213 2.15381V3.07275C113.233 3.19867 113.224 3.32811 113.186 3.44971C113.147 3.57142 113.08 3.68292 112.99 3.77393C112.901 3.86485 112.791 3.93354 112.67 3.97412C112.549 4.01471 112.419 4.02595 112.293 4.00732H110.893C110.766 4.02529 110.636 4.01367 110.515 3.97314C110.393 3.93263 110.283 3.8643 110.192 3.77393C110.102 3.68333 110.033 3.57221 109.992 3.45068C109.952 3.32924 109.94 3.19951 109.958 3.07275V2.15381C109.938 2.02576 109.948 1.8945 109.987 1.771C110.027 1.64736 110.095 1.53373 110.186 1.44092C110.276 1.34829 110.387 1.27807 110.51 1.23584C110.632 1.19357 110.764 1.18051 110.893 1.19775Z" fill="white"/>
<path d="M27.0599 0L19.0698 4.0166L0 14.2269L1.46581 15.0748L20.55 4.82135L46.5609 18.9405L54.6731 14.9455L27.0599 0Z" fill="#06A7E0"/>
<path d="M18.5664 24.8955L27.584 29.178L35.4519 25.2332L26.9301 20.5771L18.5664 24.8955Z" fill="#69CAEC"/>
<path d="M27.0426 10.1826L19.0095 14.1633H19.0166L9.38831 19.3655L10.7823 19.9475L20.3316 14.8962L36.8865 24.1437L45.085 20.0768L27.0426 10.1826Z" fill="#38B8E6"/>
<rect opacity="0.7" x="143.032" y="4.89844" width="0.979675" height="23.5122" fill="#33383D"/>
<path d="M157.027 5.19638C157.065 5.14317 157.11 5.11656 157.163 5.11656H158.03C158.106 5.11656 158.144 5.15457 158.144 5.23059V12.9846C158.144 13.0606 158.106 13.0986 158.03 13.0986H157.163C157.087 13.0986 157.049 13.0606 157.049 12.9846V7.23751C157.049 7.21471 157.042 7.2033 157.027 7.2033C157.011 7.1957 157 7.2033 156.992 7.22611L155.635 9.47249C155.597 9.52571 155.552 9.55231 155.499 9.55231H155.316C155.263 9.55231 155.217 9.52571 155.179 9.47249L153.811 7.24891C153.803 7.22611 153.792 7.21851 153.777 7.22611C153.762 7.22611 153.754 7.23751 153.754 7.26032V12.9846C153.754 13.0606 153.716 13.0986 153.64 13.0986H152.773C152.697 13.0986 152.659 13.0606 152.659 12.9846V5.23059C152.659 5.15457 152.697 5.11656 152.773 5.11656H153.64C153.693 5.11656 153.739 5.14317 153.777 5.19638L155.373 7.77345C155.381 7.78105 155.392 7.78485 155.407 7.78485C155.423 7.78485 155.434 7.78105 155.442 7.77345L157.027 5.19638ZM161.759 12.2434C162.018 12.2434 162.234 12.1826 162.409 12.061C162.592 11.9317 162.729 11.7569 162.82 11.5364C162.843 11.468 162.888 11.4414 162.957 11.4566L163.732 11.6277C163.808 11.6505 163.835 11.6961 163.812 11.7645C163.667 12.213 163.417 12.5627 163.059 12.8136C162.702 13.0644 162.265 13.1899 161.748 13.1899C161.155 13.1899 160.676 13.0416 160.311 12.7451C159.946 12.4487 159.714 12.042 159.616 11.525C159.578 11.3122 159.551 11.0879 159.536 10.8522C159.528 10.609 159.524 10.2897 159.524 9.8944C159.524 9.5067 159.543 9.19882 159.581 8.97076C159.65 8.43862 159.874 8.01291 160.254 7.69363C160.634 7.36674 161.113 7.2033 161.691 7.2033C162.322 7.2033 162.831 7.38195 163.219 7.73924C163.607 8.09653 163.823 8.56786 163.869 9.15321C163.892 9.41168 163.903 9.8868 163.903 10.5786C163.903 10.6546 163.865 10.6926 163.789 10.6926H160.665C160.634 10.6926 160.619 10.7078 160.619 10.7382C160.619 10.9511 160.63 11.1373 160.653 11.297C160.691 11.5782 160.809 11.8063 161.007 11.9811C161.204 12.156 161.455 12.2434 161.759 12.2434ZM161.702 8.14975C161.413 8.14975 161.174 8.23717 160.984 8.41202C160.801 8.58686 160.691 8.81492 160.653 9.09619C160.63 9.30145 160.619 9.52571 160.619 9.76897C160.619 9.79938 160.634 9.81458 160.665 9.81458H162.763C162.793 9.81458 162.808 9.79938 162.808 9.76897C162.793 9.46489 162.778 9.24443 162.763 9.1076C162.725 8.82632 162.611 8.59826 162.421 8.42342C162.231 8.24097 161.991 8.14975 161.702 8.14975ZM170.546 7.21471C171.078 7.21471 171.488 7.38575 171.777 7.72784C172.074 8.06993 172.222 8.54505 172.222 9.15321V12.9846C172.222 13.0606 172.184 13.0986 172.108 13.0986H171.253C171.177 13.0986 171.139 13.0606 171.139 12.9846V9.31285C171.139 8.95556 171.051 8.67428 170.876 8.46903C170.709 8.26378 170.477 8.16115 170.181 8.16115C169.884 8.16115 169.645 8.26378 169.462 8.46903C169.288 8.66668 169.2 8.94035 169.2 9.29004V12.9846C169.2 13.0606 169.162 13.0986 169.086 13.0986H168.231C168.155 13.0986 168.117 13.0606 168.117 12.9846V9.31285C168.117 8.95556 168.029 8.67428 167.855 8.46903C167.68 8.26378 167.448 8.16115 167.159 8.16115C166.863 8.16115 166.623 8.26378 166.441 8.46903C166.266 8.66668 166.178 8.94035 166.178 9.29004V12.9846C166.178 13.0606 166.14 13.0986 166.064 13.0986H165.209C165.133 13.0986 165.095 13.0606 165.095 12.9846V7.40856C165.095 7.33254 165.133 7.29453 165.209 7.29453H166.064C166.14 7.29453 166.178 7.33254 166.178 7.40856V7.75064C166.178 7.76585 166.182 7.77725 166.19 7.78485C166.205 7.79246 166.22 7.78865 166.235 7.77345C166.547 7.40095 166.98 7.21471 167.535 7.21471C167.87 7.21471 168.159 7.28312 168.402 7.41996C168.645 7.55679 168.831 7.75825 168.961 8.02432C168.984 8.05472 169.006 8.05092 169.029 8.01291C169.196 7.73924 169.413 7.53779 169.679 7.40856C169.953 7.27932 170.242 7.21471 170.546 7.21471ZM177.789 8.91375C177.865 9.29385 177.903 9.72716 177.903 10.2137C177.903 10.685 177.857 11.1183 177.766 11.5136C177.637 12.0838 177.428 12.5057 177.139 12.7793C176.85 13.053 176.466 13.1899 175.987 13.1899C175.41 13.1899 174.984 12.9884 174.71 12.5855C174.703 12.5703 174.691 12.5665 174.676 12.5741C174.661 12.5817 174.653 12.5931 174.653 12.6083V12.9846C174.653 13.0606 174.615 13.0986 174.539 13.0986H173.673C173.597 13.0986 173.559 13.0606 173.559 12.9846V5.23059C173.559 5.15457 173.597 5.11656 173.673 5.11656H174.539C174.615 5.11656 174.653 5.15457 174.653 5.23059V7.77345C174.653 7.79626 174.657 7.80766 174.665 7.80766C174.68 7.80766 174.695 7.80006 174.71 7.78485C174.961 7.39715 175.372 7.2033 175.942 7.2033C176.945 7.2033 177.561 7.77345 177.789 8.91375ZM176.66 11.4566C176.751 11.1525 176.797 10.7306 176.797 10.1909C176.797 9.62833 176.74 9.18742 176.626 8.86813C176.443 8.38921 176.132 8.14975 175.691 8.14975C175.463 8.14975 175.277 8.21436 175.132 8.3436C174.995 8.46523 174.889 8.64768 174.813 8.89094C174.714 9.19502 174.665 9.62833 174.665 10.1909C174.665 10.7382 174.71 11.1677 174.801 11.4794C174.961 11.9887 175.261 12.2434 175.702 12.2434C176.181 12.2434 176.5 11.9811 176.66 11.4566ZM181.236 12.2434C181.494 12.2434 181.711 12.1826 181.886 12.061C182.068 11.9317 182.205 11.7569 182.296 11.5364C182.319 11.468 182.365 11.4414 182.433 11.4566L183.208 11.6277C183.284 11.6505 183.311 11.6961 183.288 11.7645C183.144 12.213 182.893 12.5627 182.536 12.8136C182.178 13.0644 181.741 13.1899 181.224 13.1899C180.631 13.1899 180.152 13.0416 179.787 12.7451C179.423 12.4487 179.191 12.042 179.092 11.525C179.054 11.3122 179.027 11.0879 179.012 10.8522C179.004 10.609 179.001 10.2897 179.001 9.8944C179.001 9.5067 179.02 9.19882 179.058 8.97076C179.126 8.43862 179.35 8.01291 179.73 7.69363C180.111 7.36674 180.589 7.2033 181.167 7.2033C181.798 7.2033 182.308 7.38195 182.695 7.73924C183.083 8.09653 183.3 8.56786 183.345 9.15321C183.368 9.41168 183.379 9.8868 183.379 10.5786C183.379 10.6546 183.341 10.6926 183.265 10.6926H180.141C180.111 10.6926 180.095 10.7078 180.095 10.7382C180.095 10.9511 180.107 11.1373 180.13 11.297C180.168 11.5782 180.285 11.8063 180.483 11.9811C180.681 12.156 180.932 12.2434 181.236 12.2434ZM181.179 8.14975C180.89 8.14975 180.65 8.23717 180.46 8.41202C180.278 8.58686 180.168 8.81492 180.13 9.09619C180.107 9.30145 180.095 9.52571 180.095 9.76897C180.095 9.79938 180.111 9.81458 180.141 9.81458H182.239C182.27 9.81458 182.285 9.79938 182.285 9.76897C182.27 9.46489 182.254 9.24443 182.239 9.1076C182.201 8.82632 182.087 8.59826 181.897 8.42342C181.707 8.24097 181.468 8.14975 181.179 8.14975ZM186.977 7.23751C187.206 7.23751 187.399 7.28312 187.559 7.37435C187.612 7.39715 187.631 7.44276 187.616 7.51118L187.445 8.37781C187.437 8.45383 187.392 8.47663 187.308 8.44622C187.194 8.40822 187.069 8.38921 186.932 8.38921C186.833 8.38921 186.761 8.39301 186.715 8.40061C186.419 8.42342 186.172 8.56025 185.974 8.81112C185.776 9.05438 185.678 9.34706 185.678 9.68915V12.9846C185.678 13.0606 185.64 13.0986 185.564 13.0986H184.697C184.621 13.0986 184.583 13.0606 184.583 12.9846V7.40856C184.583 7.33254 184.621 7.29453 184.697 7.29453H185.564C185.64 7.29453 185.678 7.33254 185.678 7.40856V8.13834C185.678 8.16115 185.681 8.17635 185.689 8.18396C185.704 8.18396 185.716 8.17635 185.723 8.16115C185.997 7.54539 186.415 7.23751 186.977 7.23751ZM192.839 13.1899C192.246 13.1899 191.759 13.0378 191.379 12.7337C190.999 12.4221 190.771 12.0001 190.695 11.468C190.634 11.0879 190.604 10.6622 190.604 10.1909C190.604 9.71195 190.634 9.29004 190.695 8.92515C190.771 8.40061 190.999 7.9825 191.379 7.67082C191.759 7.35914 192.246 7.2033 192.839 7.2033C193.424 7.2033 193.907 7.35914 194.287 7.67082C194.667 7.9825 194.895 8.39681 194.971 8.91375C195.032 9.24063 195.062 9.66634 195.062 10.1909C195.062 10.7154 195.032 11.1411 194.971 11.468C194.895 12.0001 194.667 12.4221 194.287 12.7337C193.914 13.0378 193.432 13.1899 192.839 13.1899ZM192.839 12.2434C193.12 12.2434 193.356 12.156 193.546 11.9811C193.743 11.8063 193.865 11.5744 193.911 11.2856C193.949 10.9435 193.968 10.5786 193.968 10.1909C193.968 9.79558 193.949 9.43448 193.911 9.1076C193.865 8.81872 193.743 8.58686 193.546 8.41202C193.356 8.23717 193.116 8.14975 192.827 8.14975C192.546 8.14975 192.307 8.23717 192.109 8.41202C191.919 8.58686 191.801 8.81872 191.756 9.1076C191.725 9.37367 191.71 9.73476 191.71 10.1909C191.71 10.6546 191.725 11.0195 191.756 11.2856C191.801 11.5744 191.919 11.8063 192.109 11.9811C192.307 12.156 192.55 12.2434 192.839 12.2434ZM198.601 6.0288C198.289 6.0288 198.069 6.10862 197.94 6.26826C197.818 6.4203 197.757 6.68257 197.757 7.05506V7.24891C197.757 7.27932 197.772 7.29453 197.803 7.29453H198.795C198.871 7.29453 198.909 7.33254 198.909 7.40856V8.08133C198.909 8.15735 198.871 8.19536 198.795 8.19536H197.803C197.772 8.19536 197.757 8.21056 197.757 8.24097V12.9846C197.757 13.0606 197.719 13.0986 197.643 13.0986H196.777C196.701 13.0986 196.663 13.0606 196.663 12.9846V8.24097C196.663 8.21056 196.647 8.19536 196.617 8.19536H196.024C195.948 8.19536 195.91 8.15735 195.91 8.08133V7.40856C195.91 7.33254 195.948 7.29453 196.024 7.29453H196.617C196.647 7.29453 196.663 7.27932 196.663 7.24891V6.99805C196.663 6.51912 196.723 6.14283 196.845 5.86916C196.967 5.58788 197.16 5.38643 197.427 5.2648C197.7 5.14317 198.073 5.08235 198.544 5.08235H198.806C198.882 5.08235 198.92 5.12036 198.92 5.19638L198.909 5.91477C198.909 5.99079 198.871 6.0288 198.795 6.0288H198.601Z" fill="white"/>
<g clip-path="url(#clip0_11127_37802)">
<path d="M211.921 25.1295C211.807 25.1539 211.684 25.1696 211.553 25.1696C210.791 25.1696 210.286 24.7006 210.254 23.9212V23.8462H213.213L214.25 22.8157C214.018 21.508 212.976 20.7007 211.509 20.7007C211.035 20.7007 210.607 20.7896 210.235 20.95L208.882 24.6832C209.198 25.487 209.868 26.0362 210.812 26.2333L211.921 25.1313V25.1295ZM211.521 21.8201C212.209 21.8201 212.67 22.1932 212.778 22.8663H210.287C210.373 22.2159 210.866 21.8201 211.523 21.8201H211.521Z" fill="white"/>
<path d="M204.033 20.7617H205.654L206.986 24.7093L208.295 20.7617H209.884L207.897 26.2455H206.018L204.031 20.7617H204.033Z" fill="white"/>
<path d="M183.136 23.5043C183.136 21.8077 184.252 20.6987 186.002 20.6987C187.506 20.6987 188.44 21.5095 188.654 22.8103H187.076C186.948 22.2663 186.572 21.9245 185.981 21.9245C185.186 21.9245 184.682 22.5749 184.682 23.5025C184.682 24.4301 185.188 25.0805 185.981 25.0805C186.571 25.0805 186.969 24.7283 187.076 24.1738H188.664C188.45 25.4868 187.452 26.308 185.948 26.308C184.198 26.308 183.135 25.2305 183.135 23.5025L183.136 23.5043Z" fill="white"/>
<path d="M189.103 18.7812H190.617V26.2493H189.103V18.7812Z" fill="white"/>
<path d="M194.823 20.7617H196.337V26.2455H194.995L194.854 25.5846C194.5 26.0118 194.017 26.31 193.233 26.31C192.096 26.31 191.043 25.7451 191.043 23.8026V20.7617H192.557V23.5986C192.557 24.5803 192.88 25.0598 193.631 25.0598C194.382 25.0598 194.823 24.5158 194.823 23.5027V20.7617Z" fill="white"/>
<path d="M198.03 24.4203C198.085 24.8998 198.503 25.2311 199.243 25.2311C199.877 25.2311 200.263 25.0288 200.263 24.6452C200.263 24.1971 199.887 24.1657 198.996 24.0471C197.708 23.8972 196.709 23.6095 196.709 22.4796C196.709 21.3497 197.665 20.6767 199.082 20.6871C200.563 20.6871 201.582 21.3375 201.658 22.4587H200.208C200.166 22.021 199.747 21.7542 199.134 21.7542C198.522 21.7542 198.157 21.967 198.157 22.3192C198.157 22.7359 198.629 22.7778 199.424 22.8737C200.691 23.0009 201.742 23.2904 201.742 24.5266C201.742 25.6147 200.712 26.3086 199.229 26.3086C197.746 26.3086 196.653 25.5937 196.588 24.4203H198.027H198.03Z" fill="white"/>
<path d="M202.244 19.3316C202.244 18.8417 202.63 18.479 203.125 18.479C203.62 18.479 204.006 18.8417 204.006 19.3316C204.006 19.8216 203.62 20.1738 203.125 20.1738C202.63 20.1738 202.244 19.8111 202.244 19.3316ZM202.362 20.7614H203.887V26.2452H202.362V20.7614Z" fill="white"/>
<path d="M218.598 18.6278L217.975 19.2468C218.199 19.1927 218.436 19.1613 218.687 19.1613C219.968 19.1613 220.858 19.8187 221.174 21.0061H221.804C221.49 19.4961 220.305 18.6226 218.71 18.6226C218.671 18.6226 218.636 18.626 218.598 18.6278Z" fill="white"/>
<path d="M218.848 22.3015V22.8403H221.345V23.1646C221.345 24.6415 220.313 25.7644 218.632 25.7644C216.951 25.7644 215.798 24.4061 215.798 22.4636C215.798 22.0208 215.859 21.6093 215.973 21.2344L215.213 21.9894C215.199 22.1446 215.191 22.3015 215.191 22.4619C215.191 24.7374 216.591 26.3014 218.621 26.3014C220.141 26.3014 221.041 25.4714 221.368 24.5647L221.401 26.2369H221.912V22.2997H218.851L218.848 22.3015Z" fill="white"/>
<path d="M225.242 20.7729V21.3013H224.84C223.548 21.3013 223.255 22.3579 223.255 23.4686V26.241H222.702V20.7729H223.18L223.267 21.8627C223.496 21.2594 223.929 20.7729 224.95 20.7729H225.243H225.242Z" fill="white"/>
<path d="M224.821 23.4994C224.821 21.8499 225.907 20.7061 227.458 20.7061C229.009 20.7061 230.106 21.8499 230.106 23.4994C230.106 25.1489 229.009 26.3032 227.458 26.3032C225.907 26.3032 224.821 25.1593 224.821 23.4994ZM229.532 23.4994C229.532 22.1515 228.685 21.1908 227.458 21.1908C226.231 21.1908 225.386 22.1515 225.386 23.4994C225.386 24.8472 226.233 25.808 227.458 25.808C228.683 25.808 229.532 24.8594 229.532 23.4994Z" fill="white"/>
<path d="M234.541 20.7732H235.094V26.2413H234.606L234.531 25.087C234.217 25.7879 233.576 26.3058 232.599 26.3058C231.383 26.3058 230.482 25.5508 230.482 23.8351V20.7715H231.035V23.8019C231.035 25.1079 231.665 25.7967 232.685 25.7967C233.825 25.7967 234.541 24.89 234.541 23.4567V20.7715V20.7732Z" fill="white"/>
<path d="M241.002 23.4994C241.002 25.1611 239.916 26.3032 238.409 26.3032C237.366 26.3032 236.617 25.7748 236.303 24.9762V28.3955H235.75V20.7706H236.227L236.313 22.0225C236.661 21.257 237.377 20.7061 238.409 20.7061C239.918 20.7061 241.002 21.7854 241.002 23.4994ZM240.437 23.4994C240.437 22.1515 239.591 21.1908 238.365 21.1908C237.138 21.1908 236.292 22.1515 236.292 23.4889C236.292 24.8263 237.138 25.808 238.365 25.808C239.591 25.808 240.437 24.8594 240.437 23.4994Z" fill="white"/>
<path d="M175.37 24.8718V23.1438H177.985V21.8326H175.37V20.157H178.806V18.7812H173.761V26.2475H177.632L178.641 24.8718H175.37Z" fill="white"/>
<path d="M181.298 24.8849L182.302 26.2449H184.03L182.179 23.7236L181.298 24.8849Z" fill="white"/>
<path d="M178.254 20.7617L180.207 23.4504L178.158 26.2437H179.737L181.832 23.4068L179.983 20.7617H178.254Z" fill="white"/>
<path d="M181.307 21.8939L182.153 20.7466H183.882L182.174 23.0743L181.307 21.8939Z" fill="white"/>
<path d="M161.998 17.1138L159.002 18.6133L151.85 22.4144L152.401 22.7318L159.557 18.9115L169.314 24.172L172.357 22.6847L161.998 17.1138Z" fill="#00A7E1"/>
<path d="M158.816 26.3906L162.196 27.9877L165.15 26.5178L161.952 24.7847L158.816 26.3906Z" fill="#80CAED"/>
<path d="M161.993 20.9102L158.982 22.394L158.985 22.3957L155.372 24.3329L155.895 24.5491L159.477 22.6677L165.686 26.1114L168.762 24.5962L161.993 20.9102Z" fill="#44B8E7"/>
</g>
<defs>
<clipPath id="clip0_11127_37802">
<rect width="89.1504" height="11.3053" fill="white" transform="translate(151.85 17.1133)"/>
</clipPath>
</defs>
</svg>
