<svg version="1.2" xmlns="http://www.w3.org/2000/svg" viewBox="0 0 59 59" width="59" height="59">
	<style>
		.s0 { fill: #ffffff } 
	</style>
	<path class="s0" d="m43.64 17h-5.5c-0.12 0-0.21 0.09-0.21 0.2v3.51c0 0.11 0.09 0.2 0.21 0.2h8.06c0.11 0 0.2 0.09 0.2 0.2v19.14c0 0.11 0.09 0.2 0.2 0.2h3.5c0.12 0 0.21-0.09 0.21-0.2v-16.58c0-1.77-0.71-3.47-1.96-4.72-1.25-1.25-2.94-1.95-4.71-1.95z"/>
	<path class="s0" d="m58.55 17h-8.06c-0.11 0-0.2 0.09-0.2 0.2v3.51c0 0.11 0.09 0.2 0.2 0.2h8.06c0.11 0 0.2-0.09 0.2-0.2v-3.51c0-0.11-0.09-0.2-0.2-0.2z"/>
	<path class="s0" d="m15.36 27.12h-8.69c-1.77 0-3.47 0.7-4.72 1.96-1.25 1.25-1.95 2.94-1.95 4.71v6.46c0 0.11 0.09 0.2 0.2 0.2h3.5c0.12 0 0.21-0.09 0.21-0.2v-9.22h11.45c0.11 0 0.2-0.09 0.2-0.2v-3.5c0-0.11-0.09-0.21-0.2-0.21z"/>
	<path class="s0" d="m15.36 17h-8.69c-1.77 0-3.47 0.7-4.72 1.96-1.25 1.25-1.95 2.94-1.95 4.71v3.25c0 0.11 0.09 0.2 0.2 0.2h3.5c0.12 0 0.21-0.09 0.21-0.2v-5.81c0-0.11 0.09-0.2 0.2-0.2h11.25c0.11 0 0.2-0.09 0.2-0.2v-3.5c0-0.12-0.09-0.21-0.2-0.21z"/>
	<path class="s0" d="m37.18 17h-4.46q-0.16 0.01-0.25 0.13l-5.49 7.77c-0.08 0.12-0.26 0.12-0.34 0l-5.49-7.77q-0.09-0.12-0.25-0.13h-4.46c-0.12 0-0.2 0.14-0.13 0.24l5.87 8.4c2.25 3.22 7.01 3.22 9.26 0l5.87-8.4c0.07-0.1 0-0.24-0.13-0.24z"/>
	<path class="s0" d="m31.44 31.81c-2.24-3.22-7.01-3.22-9.26 0l-5.87 8.4c-0.07 0.1 0 0.24 0.13 0.24h4.46q0.16 0 0.25-0.13l5.49-7.77c0.08-0.12 0.26-0.12 0.34 0l5.49 7.77q0.09 0.13 0.25 0.13h4.46c0.13 0 0.2-0.14 0.13-0.24z"/>
</svg>